<?xml version="1.0" encoding="UTF-8" standalone="no"?>
<!-- Created with Inkscape (http://www.inkscape.org/) -->
<svg
   xmlns:dc="http://purl.org/dc/elements/1.1/"
   xmlns:cc="http://web.resource.org/cc/"
   xmlns:rdf="http://www.w3.org/1999/02/22-rdf-syntax-ns#"
   xmlns:svg="http://www.w3.org/2000/svg"
   xmlns="http://www.w3.org/2000/svg"
   xmlns:sodipodi="http://sodipodi.sourceforge.net/DTD/sodipodi-0.dtd"
   xmlns:inkscape="http://www.inkscape.org/namespaces/inkscape"
   width="85"
   height="85"
   id="svg2"
   sodipodi:version="0.32"
   inkscape:version="0.45.1"
   version="1.0"
   sodipodi:docbase="/home/david/projects/3yp/docs/interim"
   sodipodi:docname="improvedfilter.svg"
   inkscape:output_extension="org.inkscape.output.svg.inkscape">
  <defs
     id="defs4" />
  <sodipodi:namedview
     id="base"
     pagecolor="#ffffff"
     bordercolor="#666666"
     borderopacity="1.0"
     gridtolerance="10000"
     guidetolerance="10"
     objecttolerance="10"
     inkscape:pageopacity="0.0"
     inkscape:pageshadow="2"
     inkscape:zoom="5"
     inkscape:cx="87.2"
     inkscape:cy="40"
     inkscape:document-units="px"
     inkscape:current-layer="layer1"
     showgrid="true"
     inkscape:window-width="1920"
     inkscape:window-height="1155"
     inkscape:window-x="0"
     inkscape:window-y="0" />
  <metadata
     id="metadata7">
    <rdf:RDF>
      <cc:Work
         rdf:about="">
        <dc:format>image/svg+xml</dc:format>
        <dc:type
           rdf:resource="http://purl.org/dc/dcmitype/StillImage" />
      </cc:Work>
    </rdf:RDF>
  </metadata>
  <g
     inkscape:label="Layer 1"
     inkscape:groupmode="layer"
     id="layer1"
     transform="translate(-290,-457.36218)">
    <path
       sodipodi:type="arc"
       style="fill:none;fill-opacity:1;stroke:#000000;stroke-width:1;stroke-miterlimit:4;stroke-dasharray:none;stroke-dashoffset:0;stroke-opacity:1"
       id="path2160"
       sodipodi:cx="274.70001"
       sodipodi:cy="479.46219"
       sodipodi:rx="3.0999999"
       sodipodi:ry="3.0999999"
       d="M 277.80001 479.46219 A 3.0999999 3.0999999 0 1 1  271.60001,479.46219 A 3.0999999 3.0999999 0 1 1  277.80001 479.46219 z"
       transform="matrix(0.6944444,0,0,0.6944449,101.73611,166.90211)" />
    <path
       sodipodi:type="arc"
       style="fill:none;fill-opacity:1;stroke:#000000;stroke-width:1;stroke-miterlimit:4;stroke-dasharray:none;stroke-dashoffset:0;stroke-opacity:1"
       id="path3136"
       sodipodi:cx="274.70001"
       sodipodi:cy="479.46219"
       sodipodi:rx="3.0999999"
       sodipodi:ry="3.0999999"
       d="M 277.80001 479.46219 A 3.0999999 3.0999999 0 1 1  271.60001,479.46219 A 3.0999999 3.0999999 0 1 1  277.80001 479.46219 z"
       transform="matrix(0.6944444,0,0,0.6944449,161.73611,201.90211)" />
    <path
       sodipodi:type="arc"
       style="fill:none;fill-opacity:1;stroke:#000000;stroke-width:1;stroke-miterlimit:4;stroke-dasharray:none;stroke-dashoffset:0;stroke-opacity:1"
       id="path3138"
       sodipodi:cx="274.70001"
       sodipodi:cy="479.46219"
       sodipodi:rx="3.0999999"
       sodipodi:ry="3.0999999"
       d="M 277.80001 479.46219 A 3.0999999 3.0999999 0 1 1  271.60001,479.46219 A 3.0999999 3.0999999 0 1 1  277.80001 479.46219 z"
       transform="matrix(0.6944444,0,0,0.6944449,141.73611,126.90211)" />
    <path
       sodipodi:type="arc"
       style="fill:none;fill-opacity:1;stroke:#000000;stroke-width:1;stroke-miterlimit:4;stroke-dasharray:none;stroke-dashoffset:0;stroke-opacity:1"
       id="path3140"
       sodipodi:cx="274.70001"
       sodipodi:cy="479.46219"
       sodipodi:rx="3.0999999"
       sodipodi:ry="3.0999999"
       d="M 277.80001 479.46219 A 3.0999999 3.0999999 0 1 1  271.60001,479.46219 A 3.0999999 3.0999999 0 1 1  277.80001 479.46219 z"
       transform="matrix(0.6944444,0,0,0.6944449,141.73611,206.90211)" />
    <path
       sodipodi:type="arc"
       style="fill:none;fill-opacity:1;stroke:#000000;stroke-width:1;stroke-miterlimit:4;stroke-dasharray:none;stroke-dashoffset:0;stroke-opacity:1"
       id="path3142"
       sodipodi:cx="274.70001"
       sodipodi:cy="479.46219"
       sodipodi:rx="3.0999999"
       sodipodi:ry="3.0999999"
       d="M 277.80001 479.46219 A 3.0999999 3.0999999 0 1 1  271.60001,479.46219 A 3.0999999 3.0999999 0 1 1  277.80001 479.46219 z"
       transform="matrix(0.6944444,0,0,0.6944449,121.73611,131.90211)" />
    <path
       sodipodi:type="arc"
       style="fill:none;fill-opacity:1;stroke:#000000;stroke-width:1;stroke-miterlimit:4;stroke-dasharray:none;stroke-dashoffset:0;stroke-opacity:1"
       id="path3144"
       sodipodi:cx="274.70001"
       sodipodi:cy="479.46219"
       sodipodi:rx="3.0999999"
       sodipodi:ry="3.0999999"
       d="M 277.80001 479.46219 A 3.0999999 3.0999999 0 1 1  271.60001,479.46219 A 3.0999999 3.0999999 0 1 1  277.80001 479.46219 z"
       transform="matrix(0.6944444,0,0,0.6944449,106.73611,146.90211)" />
    <path
       sodipodi:type="arc"
       style="fill:none;fill-opacity:1;stroke:#000000;stroke-width:1;stroke-miterlimit:4;stroke-dasharray:none;stroke-dashoffset:0;stroke-opacity:1"
       id="path3146"
       sodipodi:cx="274.70001"
       sodipodi:cy="479.46219"
       sodipodi:rx="3.0999999"
       sodipodi:ry="3.0999999"
       d="M 277.80001 479.46219 A 3.0999999 3.0999999 0 1 1  271.60001,479.46219 A 3.0999999 3.0999999 0 1 1  277.80001 479.46219 z"
       transform="matrix(0.6944444,0,0,0.6944449,106.73611,186.90211)" />
    <path
       sodipodi:type="arc"
       style="fill:none;fill-opacity:1;stroke:#000000;stroke-width:1;stroke-miterlimit:4;stroke-dasharray:none;stroke-dashoffset:0;stroke-opacity:1"
       id="path3148"
       sodipodi:cx="274.70001"
       sodipodi:cy="479.46219"
       sodipodi:rx="3.0999999"
       sodipodi:ry="3.0999999"
       d="M 277.80001 479.46219 A 3.0999999 3.0999999 0 1 1  271.60001,479.46219 A 3.0999999 3.0999999 0 1 1  277.80001 479.46219 z"
       transform="matrix(0.6944444,0,0,0.6944449,121.73611,201.90211)" />
    <path
       sodipodi:type="arc"
       style="fill:none;fill-opacity:1;stroke:#000000;stroke-width:1;stroke-miterlimit:4;stroke-dasharray:none;stroke-dashoffset:0;stroke-opacity:1"
       id="path3150"
       sodipodi:cx="274.70001"
       sodipodi:cy="479.46219"
       sodipodi:rx="3.0999999"
       sodipodi:ry="3.0999999"
       d="M 277.80001 479.46219 A 3.0999999 3.0999999 0 1 1  271.60001,479.46219 A 3.0999999 3.0999999 0 1 1  277.80001 479.46219 z"
       transform="matrix(0.6944444,0,0,0.6944449,176.73611,186.90211)" />
    <path
       sodipodi:type="arc"
       style="fill:none;fill-opacity:1;stroke:#000000;stroke-width:1;stroke-miterlimit:4;stroke-dasharray:none;stroke-dashoffset:0;stroke-opacity:1"
       id="path3152"
       sodipodi:cx="274.70001"
       sodipodi:cy="479.46219"
       sodipodi:rx="3.0999999"
       sodipodi:ry="3.0999999"
       d="M 277.80001 479.46219 A 3.0999999 3.0999999 0 1 1  271.60001,479.46219 A 3.0999999 3.0999999 0 1 1  277.80001 479.46219 z"
       transform="matrix(0.6944444,0,0,0.6944449,181.73611,166.90211)" />
    <path
       sodipodi:type="arc"
       style="fill:none;fill-opacity:1;stroke:#000000;stroke-width:1;stroke-miterlimit:4;stroke-dasharray:none;stroke-dashoffset:0;stroke-opacity:1"
       id="path3154"
       sodipodi:cx="274.70001"
       sodipodi:cy="479.46219"
       sodipodi:rx="3.0999999"
       sodipodi:ry="3.0999999"
       d="M 277.80001 479.46219 A 3.0999999 3.0999999 0 1 1  271.60001,479.46219 A 3.0999999 3.0999999 0 1 1  277.80001 479.46219 z"
       transform="matrix(0.6944444,0,0,0.6944449,176.73611,146.90211)" />
    <path
       sodipodi:type="arc"
       style="fill:none;fill-opacity:1;stroke:#000000;stroke-width:1;stroke-miterlimit:4;stroke-dasharray:none;stroke-dashoffset:0;stroke-opacity:1"
       id="path3156"
       sodipodi:cx="274.70001"
       sodipodi:cy="479.46219"
       sodipodi:rx="3.0999999"
       sodipodi:ry="3.0999999"
       d="M 277.80001 479.46219 A 3.0999999 3.0999999 0 1 1  271.60001,479.46219 A 3.0999999 3.0999999 0 1 1  277.80001 479.46219 z"
       transform="matrix(0.6944444,0,0,0.6944449,161.73611,131.90211)" />
    <path
       sodipodi:type="arc"
       style="fill:#000000;fill-opacity:1;stroke:#000000;stroke-width:1;stroke-miterlimit:4;stroke-dasharray:none;stroke-dashoffset:0;stroke-opacity:1"
       id="path4147"
       sodipodi:cx="274.70001"
       sodipodi:cy="479.46219"
       sodipodi:rx="3.0999999"
       sodipodi:ry="3.0999999"
       d="M 277.80001 479.46219 A 3.0999999 3.0999999 0 1 1  271.60001,479.46219 A 3.0999999 3.0999999 0 1 1  277.80001 479.46219 z"
       transform="matrix(0.6944444,0,0,0.6944449,141.73611,166.90211)" />
    <path
       sodipodi:type="arc"
       style="fill:#000000;fill-opacity:1;stroke:#000000;stroke-width:1;stroke-miterlimit:4;stroke-dasharray:none;stroke-dashoffset:0;stroke-opacity:1"
       id="path4149"
       sodipodi:cx="274.70001"
       sodipodi:cy="479.46219"
       sodipodi:rx="3.0999999"
       sodipodi:ry="3.0999999"
       d="M 277.80001 479.46219 A 3.0999999 3.0999999 0 1 1  271.60001,479.46219 A 3.0999999 3.0999999 0 1 1  277.80001 479.46219 z"
       transform="matrix(0.6944444,0,0,0.6944449,156.73611,166.90211)" />
    <path
       sodipodi:type="arc"
       style="fill:#000000;fill-opacity:1;stroke:#000000;stroke-width:1;stroke-miterlimit:4;stroke-dasharray:none;stroke-dashoffset:0;stroke-opacity:1"
       id="path4151"
       sodipodi:cx="274.70001"
       sodipodi:cy="479.46219"
       sodipodi:rx="3.0999999"
       sodipodi:ry="3.0999999"
       d="M 277.80001 479.46219 A 3.0999999 3.0999999 0 1 1  271.60001,479.46219 A 3.0999999 3.0999999 0 1 1  277.80001 479.46219 z"
       transform="matrix(0.6944444,0,0,0.6944449,171.73611,166.90211)" />
    <path
       sodipodi:type="arc"
       style="fill:#000000;fill-opacity:1;stroke:#000000;stroke-width:1;stroke-miterlimit:4;stroke-dasharray:none;stroke-dashoffset:0;stroke-opacity:1"
       id="path4154"
       sodipodi:cx="274.70001"
       sodipodi:cy="479.46219"
       sodipodi:rx="3.0999999"
       sodipodi:ry="3.0999999"
       d="M 277.80001 479.46219 A 3.0999999 3.0999999 0 1 1  271.60001,479.46219 A 3.0999999 3.0999999 0 1 1  277.80001 479.46219 z"
       transform="matrix(0.6944444,0,0,0.6944449,126.73611,166.90211)" />
    <path
       sodipodi:type="arc"
       style="fill:#000000;fill-opacity:1;stroke:#000000;stroke-width:1;stroke-miterlimit:4;stroke-dasharray:none;stroke-dashoffset:0;stroke-opacity:1"
       id="path4156"
       sodipodi:cx="274.70001"
       sodipodi:cy="479.46219"
       sodipodi:rx="3.0999999"
       sodipodi:ry="3.0999999"
       d="M 277.80001 479.46219 A 3.0999999 3.0999999 0 1 1  271.60001,479.46219 A 3.0999999 3.0999999 0 1 1  277.80001 479.46219 z"
       transform="matrix(0.6944444,0,0,0.6944449,111.73611,166.90211)" />
    <path
       sodipodi:type="arc"
       style="fill:#000000;fill-opacity:1;stroke:#000000;stroke-width:1;stroke-miterlimit:4;stroke-dasharray:none;stroke-dashoffset:0;stroke-opacity:1"
       id="path4158"
       sodipodi:cx="274.70001"
       sodipodi:cy="479.46219"
       sodipodi:rx="3.0999999"
       sodipodi:ry="3.0999999"
       d="M 277.80001 479.46219 A 3.0999999 3.0999999 0 1 1  271.60001,479.46219 A 3.0999999 3.0999999 0 1 1  277.80001 479.46219 z"
       transform="matrix(0.6944444,0,0,0.6944449,141.73611,151.90211)" />
    <path
       sodipodi:type="arc"
       style="fill:#000000;fill-opacity:1;stroke:#000000;stroke-width:1;stroke-miterlimit:4;stroke-dasharray:none;stroke-dashoffset:0;stroke-opacity:1"
       id="path4160"
       sodipodi:cx="274.70001"
       sodipodi:cy="479.46219"
       sodipodi:rx="3.0999999"
       sodipodi:ry="3.0999999"
       d="M 277.80001 479.46219 A 3.0999999 3.0999999 0 1 1  271.60001,479.46219 A 3.0999999 3.0999999 0 1 1  277.80001 479.46219 z"
       transform="matrix(0.6944444,0,0,0.6944449,141.73611,136.90211)" />
    <path
       sodipodi:type="arc"
       style="fill:#000000;fill-opacity:1;stroke:#000000;stroke-width:1;stroke-miterlimit:4;stroke-dasharray:none;stroke-dashoffset:0;stroke-opacity:1"
       id="path4162"
       sodipodi:cx="274.70001"
       sodipodi:cy="479.46219"
       sodipodi:rx="3.0999999"
       sodipodi:ry="3.0999999"
       d="M 277.80001 479.46219 A 3.0999999 3.0999999 0 1 1  271.60001,479.46219 A 3.0999999 3.0999999 0 1 1  277.80001 479.46219 z"
       transform="matrix(0.6944444,0,0,0.6944449,141.73611,181.90211)" />
    <path
       sodipodi:type="arc"
       style="fill:#000000;fill-opacity:1;stroke:#000000;stroke-width:1;stroke-miterlimit:4;stroke-dasharray:none;stroke-dashoffset:0;stroke-opacity:1"
       id="path4164"
       sodipodi:cx="274.70001"
       sodipodi:cy="479.46219"
       sodipodi:rx="3.0999999"
       sodipodi:ry="3.0999999"
       d="M 277.80001 479.46219 A 3.0999999 3.0999999 0 1 1  271.60001,479.46219 A 3.0999999 3.0999999 0 1 1  277.80001 479.46219 z"
       transform="matrix(0.6944444,0,0,0.6944449,141.73611,196.90211)" />
    <path
       sodipodi:type="arc"
       style="fill:#000000;fill-opacity:1;stroke:#000000;stroke-width:1;stroke-miterlimit:4;stroke-dasharray:none;stroke-dashoffset:0;stroke-opacity:1"
       id="path4166"
       sodipodi:cx="274.70001"
       sodipodi:cy="479.46219"
       sodipodi:rx="3.0999999"
       sodipodi:ry="3.0999999"
       d="M 277.80001 479.46219 A 3.0999999 3.0999999 0 1 1  271.60001,479.46219 A 3.0999999 3.0999999 0 1 1  277.80001 479.46219 z"
       transform="matrix(0.6944444,0,0,0.6944449,151.73611,176.90211)" />
    <path
       sodipodi:type="arc"
       style="fill:#000000;fill-opacity:1;stroke:#000000;stroke-width:1;stroke-miterlimit:4;stroke-dasharray:none;stroke-dashoffset:0;stroke-opacity:1"
       id="path4168"
       sodipodi:cx="274.70001"
       sodipodi:cy="479.46219"
       sodipodi:rx="3.0999999"
       sodipodi:ry="3.0999999"
       d="M 277.80001 479.46219 A 3.0999999 3.0999999 0 1 1  271.60001,479.46219 A 3.0999999 3.0999999 0 1 1  277.80001 479.46219 z"
       transform="matrix(0.6944444,0,0,0.6944449,161.73611,186.90211)" />
    <path
       sodipodi:type="arc"
       style="fill:#000000;fill-opacity:1;stroke:#000000;stroke-width:1;stroke-miterlimit:4;stroke-dasharray:none;stroke-dashoffset:0;stroke-opacity:1"
       id="path4170"
       sodipodi:cx="274.70001"
       sodipodi:cy="479.46219"
       sodipodi:rx="3.0999999"
       sodipodi:ry="3.0999999"
       d="M 277.80001 479.46219 A 3.0999999 3.0999999 0 1 1  271.60001,479.46219 A 3.0999999 3.0999999 0 1 1  277.80001 479.46219 z"
       transform="matrix(0.6944444,0,0,0.6944449,151.73611,156.90211)" />
    <path
       sodipodi:type="arc"
       style="fill:#000000;fill-opacity:1;stroke:#000000;stroke-width:1;stroke-miterlimit:4;stroke-dasharray:none;stroke-dashoffset:0;stroke-opacity:1"
       id="path4172"
       sodipodi:cx="274.70001"
       sodipodi:cy="479.46219"
       sodipodi:rx="3.0999999"
       sodipodi:ry="3.0999999"
       d="M 277.80001 479.46219 A 3.0999999 3.0999999 0 1 1  271.60001,479.46219 A 3.0999999 3.0999999 0 1 1  277.80001 479.46219 z"
       transform="matrix(0.6944444,0,0,0.6944449,161.73611,146.90211)" />
    <path
       sodipodi:type="arc"
       style="fill:#000000;fill-opacity:1;stroke:#000000;stroke-width:1;stroke-miterlimit:4;stroke-dasharray:none;stroke-dashoffset:0;stroke-opacity:1"
       id="path4174"
       sodipodi:cx="274.70001"
       sodipodi:cy="479.46219"
       sodipodi:rx="3.0999999"
       sodipodi:ry="3.0999999"
       d="M 277.80001 479.46219 A 3.0999999 3.0999999 0 1 1  271.60001,479.46219 A 3.0999999 3.0999999 0 1 1  277.80001 479.46219 z"
       transform="matrix(0.6944444,0,0,0.6944449,131.73611,156.90211)" />
    <path
       sodipodi:type="arc"
       style="fill:#000000;fill-opacity:1;stroke:#000000;stroke-width:1;stroke-miterlimit:4;stroke-dasharray:none;stroke-dashoffset:0;stroke-opacity:1"
       id="path4176"
       sodipodi:cx="274.70001"
       sodipodi:cy="479.46219"
       sodipodi:rx="3.0999999"
       sodipodi:ry="3.0999999"
       d="M 277.80001 479.46219 A 3.0999999 3.0999999 0 1 1  271.60001,479.46219 A 3.0999999 3.0999999 0 1 1  277.80001 479.46219 z"
       transform="matrix(0.6944444,0,0,0.6944449,121.73611,146.90211)" />
    <path
       sodipodi:type="arc"
       style="fill:#000000;fill-opacity:1;stroke:#000000;stroke-width:1;stroke-miterlimit:4;stroke-dasharray:none;stroke-dashoffset:0;stroke-opacity:1"
       id="path4178"
       sodipodi:cx="274.70001"
       sodipodi:cy="479.46219"
       sodipodi:rx="3.0999999"
       sodipodi:ry="3.0999999"
       d="M 277.80001 479.46219 A 3.0999999 3.0999999 0 1 1  271.60001,479.46219 A 3.0999999 3.0999999 0 1 1  277.80001 479.46219 z"
       transform="matrix(0.6944444,0,0,0.6944449,131.73611,176.90211)" />
    <path
       sodipodi:type="arc"
       style="fill:#000000;fill-opacity:1;stroke:#000000;stroke-width:1;stroke-miterlimit:4;stroke-dasharray:none;stroke-dashoffset:0;stroke-opacity:1"
       id="path4180"
       sodipodi:cx="274.70001"
       sodipodi:cy="479.46219"
       sodipodi:rx="3.0999999"
       sodipodi:ry="3.0999999"
       d="M 277.80001 479.46219 A 3.0999999 3.0999999 0 1 1  271.60001,479.46219 A 3.0999999 3.0999999 0 1 1  277.80001 479.46219 z"
       transform="matrix(0.6944444,0,0,0.6944449,121.73611,186.90211)" />
  </g>
</svg>
